<?xml version="1.0" encoding="UTF-8"?>
<!DOCTYPE svg PUBLIC "-//W3C//DTD SVG 1.1//EN" "http://www.w3.org/Graphics/SVG/1.1/DTD/svg11.dtd">
<svg xmlns="http://www.w3.org/2000/svg" version="1.1" width="145px" height="36px" style="shape-rendering:geometricPrecision; text-rendering:geometricPrecision; image-rendering:optimizeQuality; fill-rule:evenodd; clip-rule:evenodd" xmlns:xlink="http://www.w3.org/1999/xlink">
<g><path style="opacity:0.883" fill="#ffc600" d="M 18.5,-0.5 C 21.5,-0.5 24.5,-0.5 27.5,-0.5C 27.5,11.5 27.5,23.5 27.5,35.5C 24.5,35.5 21.5,35.5 18.5,35.5C 17.8333,34.1667 17.1667,34.1667 16.5,35.5C 13.1667,35.5 9.83333,35.5 6.5,35.5C 3.45031,33.4509 1.11698,30.7843 -0.5,27.5C -0.5,23.8333 -0.5,20.1667 -0.5,16.5C 1.64111,13.5282 4.30777,11.0282 7.5,9C 11.2441,8.07149 14.7441,8.57149 18,10.5C 18.4986,6.84841 18.6653,3.18174 18.5,-0.5 Z M 10.5,16.5 C 18.3017,16.7874 20.3017,20.2874 16.5,27C 11.3076,28.8719 8.30756,27.2052 7.5,22C 7.86269,19.8077 8.86269,17.9744 10.5,16.5 Z"/></g>
<g><path style="opacity:0.901" fill="#ffc600" d="M 48.5,35.5 C 44.8333,35.5 41.1667,35.5 37.5,35.5C 29.4075,31.0677 26.9075,24.401 30,15.5C 37.5626,6.64228 45.5626,6.30894 54,14.5C 55.2367,18.0601 55.7367,21.7267 55.5,25.5C 49.8236,25.3339 44.1569,25.5006 38.5,26C 41.6176,29.0366 44.951,29.2033 48.5,26.5C 51.3033,27.482 53.1367,29.1486 54,31.5C 52.1879,32.9771 50.3545,34.3104 48.5,35.5 Z M 39.5,16.5 C 42.6646,15.9635 45.3312,16.7969 47.5,19C 44.1667,19.6667 40.8333,19.6667 37.5,19C 38.3805,18.2917 39.0472,17.4584 39.5,16.5 Z"/></g>
<g><path style="opacity:0.895" fill="#ffc600" d="M 118.5,16.5 C 116.072,17.2122 113.739,18.2122 111.5,19.5C 106.599,15.2839 103.266,16.2839 101.5,22.5C 102.112,26.4813 104.446,27.9813 108.5,27C 109.646,26.3551 110.646,25.5217 111.5,24.5C 113.698,26.0981 116.031,27.4314 118.5,28.5C 117.138,31.8616 114.805,34.1949 111.5,35.5C 108.167,35.5 104.833,35.5 101.5,35.5C 91.8061,29.6925 90.1395,22.0259 96.5,12.5C 101.61,8.31835 107.276,7.48502 113.5,10C 115.79,11.7772 117.457,13.9438 118.5,16.5 Z"/></g>
<g><path style="opacity:0.904" fill="#ffc600" d="M 144.5,16.5 C 144.5,19.5 144.5,22.5 144.5,25.5C 138.824,25.3339 133.157,25.5006 127.5,26C 130.66,29.1197 133.993,29.2864 137.5,26.5C 139.167,27.3333 140.833,28.1667 142.5,29C 143.451,29.7175 143.617,30.5509 143,31.5C 141.603,33.0703 140.103,34.4036 138.5,35.5C 134.5,35.5 130.5,35.5 126.5,35.5C 123.216,33.883 120.549,31.5497 118.5,28.5C 117.295,24.4868 117.295,20.4868 118.5,16.5C 127.167,5.83333 135.833,5.83333 144.5,16.5 Z M 128.5,16.5 C 131.665,15.9635 134.331,16.7969 136.5,19C 133.167,19.6667 129.833,19.6667 126.5,19C 127.381,18.2917 128.047,17.4584 128.5,16.5 Z"/></g>
<g><path style="opacity:0.906" fill="#ffc600" d="M 82.5,-0.5 C 85.1667,-0.5 87.8333,-0.5 90.5,-0.5C 88.7686,2.61476 86.7686,5.61476 84.5,8.5C 86.396,9.46557 88.396,9.7989 90.5,9.5C 90.5,18.1667 90.5,26.8333 90.5,35.5C 87.8333,35.5 85.1667,35.5 82.5,35.5C 82.6664,27.16 82.4997,18.8267 82,10.5C 78.7269,18.823 75.5602,27.1563 72.5,35.5C 69.5,35.5 66.5,35.5 63.5,35.5C 60.1032,26.9764 57.1032,18.3097 54.5,9.5C 57.5719,9.18259 60.5719,9.51592 63.5,10.5C 65.0987,14.7959 66.5987,19.1292 68,23.5C 70.0068,18.9801 71.5068,14.3134 72.5,9.5C 75.8333,9.5 79.1667,9.5 82.5,9.5C 82.5,6.16667 82.5,2.83333 82.5,-0.5 Z"/></g>
</svg>
